<mxfile host="Electron" agent="Mozilla/5.0 (Windows NT 10.0; Win64; x64) AppleWebKit/537.36 (KHTML, like Gecko) draw.io/24.7.17 Chrome/128.0.6613.36 Electron/32.0.1 Safari/537.36" version="24.7.17">
  <diagram name="Page-1" id="-H_mtQnk-PTXWXPvYvuk">
    <mxGraphModel dx="2074" dy="1197" grid="1" gridSize="10" guides="1" tooltips="1" connect="1" arrows="1" fold="1" page="1" pageScale="1" pageWidth="1169" pageHeight="827" math="0" shadow="0">
      <root>
        <mxCell id="0" />
        <mxCell id="1" parent="0" />
        <mxCell id="zA23MoTUsTF4_91t8viU-2" value="&lt;div&gt;shard2&lt;/div&gt;MongoDB&lt;div&gt;&amp;lt;&amp;lt;:27019&amp;gt;&amp;gt;&lt;/div&gt;" style="shape=cylinder3;whiteSpace=wrap;html=1;boundedLbl=1;backgroundOutline=1;size=15;strokeColor=#00CC00;" parent="1" vertex="1">
          <mxGeometry x="950" y="300" width="80" height="100" as="geometry" />
        </mxCell>
        <mxCell id="zA23MoTUsTF4_91t8viU-3" value="pymongo-api&lt;div&gt;&amp;lt;&amp;lt;:8080&amp;gt;&amp;gt;&lt;/div&gt;" style="rounded=1;whiteSpace=wrap;html=1;" parent="1" vertex="1">
          <mxGeometry x="360" y="290" width="120" height="60" as="geometry" />
        </mxCell>
        <mxCell id="zA23MoTUsTF4_91t8viU-4" style="edgeStyle=orthogonalEdgeStyle;rounded=0;orthogonalLoop=1;jettySize=auto;html=1;exitX=1;exitY=0.5;exitDx=0;exitDy=0;entryX=0;entryY=0.5;entryDx=0;entryDy=0;" parent="1" source="zA23MoTUsTF4_91t8viU-3" target="rejV70VpgPA4rG30t3G9-2" edge="1">
          <mxGeometry relative="1" as="geometry" />
        </mxCell>
        <mxCell id="rejV70VpgPA4rG30t3G9-4" style="edgeStyle=orthogonalEdgeStyle;rounded=0;orthogonalLoop=1;jettySize=auto;html=1;curved=1;strokeColor=#00CC00;" edge="1" parent="1" source="rejV70VpgPA4rG30t3G9-2" target="rejV70VpgPA4rG30t3G9-3">
          <mxGeometry relative="1" as="geometry" />
        </mxCell>
        <mxCell id="rejV70VpgPA4rG30t3G9-2" value="mongo_router&lt;div&gt;&amp;lt;&amp;lt;:27020&amp;gt;&amp;gt;&lt;/div&gt;" style="rounded=0;whiteSpace=wrap;html=1;strokeColor=#00CC00;" vertex="1" parent="1">
          <mxGeometry x="620" y="290" width="120" height="60" as="geometry" />
        </mxCell>
        <mxCell id="rejV70VpgPA4rG30t3G9-3" value="&lt;div&gt;shard1&lt;/div&gt;MongoDB&lt;div&gt;&amp;lt;&amp;lt;:27018&amp;gt;&amp;gt;&lt;/div&gt;" style="shape=cylinder3;whiteSpace=wrap;html=1;boundedLbl=1;backgroundOutline=1;size=15;strokeColor=#00CC00;" vertex="1" parent="1">
          <mxGeometry x="950" y="190" width="80" height="100" as="geometry" />
        </mxCell>
        <mxCell id="rejV70VpgPA4rG30t3G9-5" style="edgeStyle=orthogonalEdgeStyle;rounded=0;orthogonalLoop=1;jettySize=auto;html=1;exitX=1;exitY=0.5;exitDx=0;exitDy=0;entryX=0.042;entryY=0.607;entryDx=0;entryDy=0;entryPerimeter=0;curved=1;strokeColor=#00CC00;" edge="1" parent="1" source="rejV70VpgPA4rG30t3G9-2" target="zA23MoTUsTF4_91t8viU-2">
          <mxGeometry relative="1" as="geometry" />
        </mxCell>
        <mxCell id="rejV70VpgPA4rG30t3G9-9" style="edgeStyle=orthogonalEdgeStyle;rounded=0;orthogonalLoop=1;jettySize=auto;html=1;entryX=0.5;entryY=0;entryDx=0;entryDy=0;strokeColor=#00CC00;dashed=1;" edge="1" parent="1" source="rejV70VpgPA4rG30t3G9-6" target="rejV70VpgPA4rG30t3G9-2">
          <mxGeometry relative="1" as="geometry" />
        </mxCell>
        <mxCell id="rejV70VpgPA4rG30t3G9-6" value="configSrv&lt;div&gt;&amp;lt;&amp;lt;:27017&amp;gt;&amp;gt;&lt;/div&gt;" style="whiteSpace=wrap;html=1;aspect=fixed;strokeColor=#00CC00;" vertex="1" parent="1">
          <mxGeometry x="760" y="170" width="80" height="80" as="geometry" />
        </mxCell>
        <mxCell id="rejV70VpgPA4rG30t3G9-7" style="edgeStyle=orthogonalEdgeStyle;rounded=0;orthogonalLoop=1;jettySize=auto;html=1;entryX=0;entryY=0;entryDx=0;entryDy=32.5;entryPerimeter=0;strokeColor=#00CC00;dashed=1;dashPattern=8 8;" edge="1" parent="1" source="rejV70VpgPA4rG30t3G9-6" target="rejV70VpgPA4rG30t3G9-3">
          <mxGeometry relative="1" as="geometry" />
        </mxCell>
        <mxCell id="rejV70VpgPA4rG30t3G9-8" style="edgeStyle=orthogonalEdgeStyle;rounded=0;orthogonalLoop=1;jettySize=auto;html=1;entryX=0;entryY=0;entryDx=0;entryDy=32.5;entryPerimeter=0;strokeColor=#00CC00;dashed=1;dashPattern=8 8;" edge="1" parent="1" source="rejV70VpgPA4rG30t3G9-6" target="zA23MoTUsTF4_91t8viU-2">
          <mxGeometry relative="1" as="geometry" />
        </mxCell>
      </root>
    </mxGraphModel>
  </diagram>
</mxfile>
